<?xml version="1.0" standalone="no"?>
<!DOCTYPE svg PUBLIC "-//W3C//DTD SVG 20010904//EN"
 "http://www.w3.org/TR/2001/REC-SVG-20010904/DTD/svg10.dtd">
<svg version="1.0" xmlns="http://www.w3.org/2000/svg"
 width="144.000000pt" height="144.000000pt" viewBox="0 0 144.000000 144.000000"
 preserveAspectRatio="xMidYMid meet">
<metadata>
Created by potrace 1.14, written by Peter Selinger 2001-2017
</metadata>
<g transform="translate(0.000000,144.000000) scale(0.100000,-0.100000)"
fill="#000000" stroke="none">
<path d="M720 1165 c0 -6 -118 -10 -335 -9 -184 0 -341 -3 -347 -8 -17 -10
-19 -842 -3 -865 10 -13 98 -15 685 -15 598 0 675 2 685 15 14 19 15 850 2
864 -5 4 -123 8 -263 8 -163 0 -254 4 -254 10 0 7 -3 7 -8 0 -9 -13 -145 -13
-154 0 -5 7 -8 7 -8 0z"/>
</g>
</svg>
